<svg version="1.1" id="Isolation_Mode" xmlns="http://www.w3.org/2000/svg" xmlns:xlink="http://www.w3.org/1999/xlink" x="0px" y="0px" viewBox="0 0 388 389" style="enable-background:new 0 0 388 389;" xml:space="preserve">
											<g>
												<path style="fill:#292F30;" d="M72,133.016c-6.609,0-12-5.375-12-12c0-6.625,5.391-12,12-12c6.609,0,12,5.39,12,12
													C84,127.625,78.609,133.016,72,133.016L72,133.016z M72,133.016"></path>
												<path style="fill:#292F30;" d="M144.414,133.016c-6.605,0-12-5.375-12-12c0-6.625,5.395-12,12-12c6.609,0,12,5.39,12,12
													C156.414,127.625,151.023,133.016,144.414,133.016L144.414,133.016z M144.414,133.016"></path>
												<g>
													<defs>
														<rect id="SVGID_1_" x="4" y="5" width="384" height="384"></rect>
													</defs>
													<clipPath id="SVGID_2_">
														<use xlink:href="#SVGID_1_" style="overflow:visible;"></use>
													</clipPath>
													<path style="clip-path:url(#SVGID_2_);fill:#00b388;" d="M108.098,181.078c-10.801,0-20.961-4.207-28.578-11.855
														c-3.122-3.118-3.122-8.192,0-11.313c3.121-3.101,8.191-3.117,11.312,0.02c9.215,9.23,25.313,9.23,34.527,0
														c3.121-3.137,8.192-3.121,11.313-0.02c3.121,3.121,3.121,8.195,0,11.313C129.039,176.871,118.895,181.078,108.098,181.078
														L108.098,181.078z M108.098,181.078"></path>
													<path style="clip-path:url(#SVGID_2_);fill:#00b388;" d="M12.016,108.969c-2.45,0-4.864-1.121-6.43-3.235
														c-2.609-3.535-1.906-8.527,1.629-11.148c1.394-1.043,35.058-25.633,100.883-25.633c65.824,0,99.308,24.59,100.718,25.649
														c3.52,2.656,4.223,7.628,1.598,11.168c-2.637,3.535-7.629,4.285-11.184,1.644c-0.3-0.223-31.07-22.445-91.117-22.445
														c-60.066,0-91.023,22.238-91.328,22.465C15.328,108.457,13.664,108.969,12.016,108.969L12.016,108.969z M12.016,108.969"></path>
													<path style="clip-path:url(#SVGID_2_);fill:#00b388;" d="M108.098,213.16c-26.145,0-47.938-8.914-64.801-26.496
														C23.695,166.281,12,134.375,12,101.367c0-0.672,0.078-1.328,0.238-1.953l11.586-52.476c3.328-15.028,15.137-26.961,30.129-30.403
														L99.168,6.168c5.809-1.344,12.016-1.344,17.887,0l45.023,10.367c14.992,3.457,26.801,15.375,30.098,30.403l11.648,52.703
														c0.114,0.574,0.176,1.152,0.176,1.726v2.418c0,24.481-8.176,59.102-31.09,82.895C155.969,204.246,134.16,213.16,108.098,213.16
														L108.098,213.16z M28,102.215c0.223,22.496,7.359,53.09,26.832,73.379c13.727,14.316,31.664,21.566,53.266,21.566
														c21.566,0,39.488-7.265,53.277-21.586C180.992,155.207,188,125.129,188,103.785v-1.539l-11.457-51.855
														c-1.984-9.024-9.07-16.192-18.063-18.254L113.457,21.77c-3.488-0.801-7.219-0.801-10.738,0L57.52,32.137
														c-8.993,2.062-16.079,9.23-18.079,18.254L28,102.215z M28,102.215"></path>
												</g>
												<path style="fill:#292F30;" d="M90.207,357H44c-4.414,0-8-3.586-8-8V221c0-4.414,3.586-8,8-8c4.414,0,8,3.586,8,8v120h38.207
													c4.418,0,8,3.586,8,8S94.625,357,90.207,357L90.207,357z M90.207,357"></path>
												<path style="fill:#292F30;" d="M268,357H156c-4.414,0-8-3.586-8-8s3.586-8,8-8h104V181h-40c-4.414,0-8-3.586-8-8s3.586-8,8-8h48
													c4.414,0,8,3.586,8,8v176C276,353.414,272.414,357,268,357L268,357z M268,357"></path>
												<path style="fill:#292F30;" d="M380,357h-32c-4.414,0-8-3.586-8-8s3.586-8,8-8h24v-55.68c0-26.207-21.312-47.519-47.52-47.519H276
													V341h8c4.414,0,8,3.586,8,8s-3.586,8-8,8h-16c-4.414,0-8-3.586-8-8V229.801c0-4.418,3.586-8,8-8h56.48
													c35.008,0,63.52,28.496,63.52,63.519V349C388,353.414,384.414,357,380,357L380,357z M380,357"></path>
												<path style="fill:#292F30;" d="M124,389c-22.062,0-40-17.953-40-40s17.938-40,40-40s40,17.953,40,40S146.062,389,124,389L124,389z
													 M124,325c-13.23,0-24,10.77-24,24s10.77,24,24,24c13.23,0,24-10.77,24-24S137.23,325,124,325L124,325z M124,325"></path>
												<path style="fill:#292F30;" d="M316,389c-22.062,0-40-17.953-40-40s17.938-40,40-40s40,17.953,40,40S338.062,389,316,389L316,389z
													 M316,325c-13.23,0-24,10.77-24,24s10.77,24,24,24c13.23,0,24-10.77,24-24S329.23,325,316,325L316,325z M316,325"></path>
											</g>
											</svg>