<svg version="1.1" id="Isolation_Mode" xmlns="http://www.w3.org/2000/svg" xmlns:xlink="http://www.w3.org/1999/xlink" x="0px" y="0px" viewBox="0 0 225.843 227.729" style="enable-background:new 0 0 225.843 227.729;" xml:space="preserve">
<g>
<path style="fill:#292F30;" d="M113.485,227.717c-21.993,0-43.985,0.022-65.978-0.008c-12.195-0.017-19.393-5.813-21.828-17.622
c-2.252-10.922-4.219-21.906-6.688-32.778c-0.505-2.222-2.25-4.728-4.16-5.97c-9.354-6.083-14.544-16.488-12.856-26.824
c1.797-11.01,9.983-19.296,21.266-21.918c1.928-0.448,3.966-1.675,5.327-3.128c45.83-48.911,124.541-48.874,170.397,0.064
c1.446,1.543,3.745,2.665,5.841,3.156c10.799,2.535,18.982,11.014,20.726,21.876c1.636,10.192-3.283,20.99-12.611,26.311
c-3.006,1.715-4.108,3.789-4.691,6.908c-2.018,10.798-4.224,21.562-6.413,32.327c-2.347,11.541-9.613,17.566-21.356,17.591
C158.137,227.751,135.811,227.717,113.485,227.717z M198.894,161.557c7.365,0.071,13.25-5.49,13.675-12.459
c0.402-6.588-4.762-12.925-11.497-13.407c-3.908-0.28-6.866-1.39-9.522-4.429c-41.109-47.031-114.582-46.977-155.77-0.135
c-1.946,2.213-5.418,3.792-8.397,4.252c-7.839,1.21-13.403,7.375-12.37,14.709c1.124,7.981,8.264,12.695,16.518,10.905
c6.246-1.354,7.805-0.576,10.487,5.233c4.181,9.057,14.441,11.176,21.957,4.534c7.855-6.941,12.914-6.92,20.893,0.085
c5.683,4.989,12.443,5.1,18.069,0.298c8.754-7.473,12.858-7.472,21.627,0.005c5.341,4.553,12.006,4.695,17.329,0.368
c9.842-8,12.759-8.01,22.369-0.08c6.852,5.655,16.791,3.586,20.768-4.323c3.656-7.271,3.924-7.4,11.882-5.852
C197.724,161.419,198.55,161.507,198.894,161.557z M32.617,177.483c1.998,10.024,3.862,19.632,5.842,29.217
c1.356,6.561,3.081,7.883,9.91,7.887c16.826,0.01,33.652-0.008,50.478-0.007c26.988,0.001,53.977-0.009,80.965,0.031
c3.768,0.006,7.462-0.644,8.405-4.71c2.454-10.591,4.434-21.291,6.75-32.667c-15.493,13.587-24.723,13.999-42.163,2.338
c-5.46,5.178-11.841,8.294-19.628,8.283c-7.77-0.011-13.978-3.522-19.447-8.441c-13.771,11.355-23.898,11.344-39.39,0.222
C58.552,191.349,49.35,190.949,32.617,177.483z"></path>
<path style="fill:#00b388;" d="M100.504,51.356c0.114-7.803,2.825-13.467,8.035-17.959c7.666-6.609,7.995-11.029,1.264-18.194
c-2.667-2.839-3.182-5.948-0.735-8.965c2.618-3.228,5.853-3.276,9.29-0.937c11.849,8.066,12.538,26.318,1.315,36.072
c-7.863,6.834-8.075,9.93-1.158,17.52c2.622,2.877,3.037,5.986,0.474,8.965c-2.567,2.984-5.842,3.081-8.961,0.889
C103.733,64.323,100.69,58.114,100.504,51.356z"></path>
<path style="fill:#00b388;" d="M67.675,50.46c0.143-7.17,3.012-12.904,8.458-17.436c7.153-5.952,7.496-11.06,1.149-17.514
c-2.862-2.911-3.576-5.982-1.004-9.333c2.395-3.12,6.031-3.245,9.714-0.531c11.615,8.557,11.684,26.291,0.496,36.202
c-2.51,2.223-4.777,5.687-5.284,8.878c-0.359,2.257,2.078,5.319,3.906,7.482c2.95,3.491,3.687,6.963,1.034,9.721
c-3.106,3.228-6.473,2.872-9.795,0.223C70.649,63.605,67.811,57.661,67.675,50.46z"></path>
<path style="fill:#00b388;" d="M160.559,23.798c-0.306,7.467-3.074,13.567-8.907,18.291c-6.767,5.48-6.973,10.181-0.966,16.217
c3.309,3.325,3.777,6.836,1.022,9.65c-3.136,3.203-6.491,2.669-9.828,0.144c-10.834-8.199-11.419-24.841-1.183-34.151
c8.562-7.788,8.763-10.57,1.461-19.209c-2.362-2.795-2.526-5.838-0.196-8.616c2.323-2.771,5.37-3.327,8.477-1.272
C157.23,9.344,160.158,15.959,160.559,23.798z"></path>
<path style="fill:#00b388;" d="M94.884,115.108c-1.336,2.362-2.001,4.282-3.268,5.641c-3.841,4.121-7.851,8.092-11.918,11.992
c-3.548,3.402-7.324,3.579-10.031,0.491c-2.95-3.366-2.312-6.68,0.674-9.697c4.082-4.124,7.97-8.493,12.431-12.16
c1.711-1.406,4.998-2.011,7.149-1.43C91.803,110.453,93.099,113.133,94.884,115.108z"></path>
<path style="fill:#00b388;" d="M153.704,136.26c-2.353-1.354-4.278-2.046-5.651-3.329c-4.116-3.844-8.082-7.855-11.98-11.923
c-3.271-3.414-3.46-7.494-0.466-10.043c3.389-2.886,6.698-2.225,9.704,0.764c4.113,4.09,8.485,7.971,12.152,12.43
c1.395,1.697,1.992,4.989,1.391,7.112C158.312,133.187,155.638,134.499,153.704,136.26z"></path>
<path style="fill:#00b388;" d="M120.282,122.178c0,2.321,0.189,4.661-0.042,6.958c-0.386,3.838-2.716,6.166-6.538,6.164
c-3.56-0.002-6.119-2.145-6.342-5.768c-0.304-4.947-0.325-9.953,0.088-14.887c0.304-3.627,3.023-5.539,6.607-5.411
c3.352,0.12,5.65,2.074,6.056,5.499c0.291,2.449,0.056,4.96,0.056,7.443C120.206,122.178,120.244,122.178,120.282,122.178z"></path>
</g>
</svg>