<svg version="1.1" id="grocerysvg" xmlns="http://www.w3.org/2000/svg" xmlns:xlink="http://www.w3.org/1999/xlink" x="0px" y="0px" viewBox="0 0 247.915 391.915" style="enable-background:new 0 0 247.915 391.915;" xml:space="preserve">
											<g>
												<path style="fill:#292F30;" d="M212.312,118.493l-22.539,15.031l-22.539-15.031l-22.543,15.031l-22.543-15.031l-22.547,15.031
													l-22.543-15.031l-22.547,15.031l-22.547-15.031L3.781,137.282v34.683H15.05v-28.652l16.914-11.273l22.547,15.031l22.547-15.031
													l22.543,15.031l22.547-15.031l22.543,15.031l22.543-15.027l22.539,15.027l22.539-15.027l16.91,11.269v28.922h-39.453v11.273h39.453
													v11.27h-24.426v11.273h24.426v74.997h11.269V137.282L212.312,118.493z M212.312,118.493"></path>
												<path style="fill:#292F30;" d="M16.023,363.859h38.48v-11.273H15.05v-11.274h24.426v-11.269H15.05V183.239H3.781v174.984
													c0,15.539,12.64,28.18,28.179,28.18h59.996v-11.273H31.96C24.613,375.129,18.347,370.418,16.023,363.859L16.023,363.859z
													 M16.023,363.859"></path>
												<path style="fill:#292F30;" d="M229.222,358.223c0,9.325-7.586,16.907-16.91,16.907H103.23v11.273h109.082
													c15.539,0,28.179-12.641,28.179-28.18V292.32h-11.269V358.223z M229.222,358.223"></path>
												<path style="fill:#00b388;" d="M9.511,112.227l11.098-1.957l-1.219-6.933c-1.883-10.664-2.836-21.219-2.836-31.375
													c0-31.778,9.586-55.661,23.309-58.079c0.781-0.136,1.589-0.207,2.394-0.207c9.578,0,20.891,9.977,30.258,26.692l9.832-5.512
													C70.616,13.926,56.378,2.403,42.257,2.403c-1.461,0-2.926,0.129-4.355,0.379C18.085,6.278,5.284,33.43,5.284,71.962
													c0,10.808,1.012,22.023,3.004,33.332L9.511,112.227z M9.511,112.227"></path>
												<path style="fill:#00b388;" d="M84.113,67.887l-26.282,4.637C48.648,74.141,42.499,82.93,44.116,92.11
													c1.446,8.191,8.594,13.973,16.645,13.973c0.969,0,1.953-0.082,2.941-0.258l27.754-4.895l2.649,15.024l11.097-1.957l-2.648-15.024
													l-1.762-9.988c-1.953-11.809-5.496-23.066-5.496-23.066c-2.195-7.243-4.769-14.164-7.664-20.563L77.363,50
													C79.886,55.579,82.148,61.594,84.113,67.887L84.113,67.887z M87.257,79.278c0.371,1.727,0.738,2.676,2.234,10.555l-27.746,4.89
													c-3.066,0.543-5.988-1.511-6.527-4.57c-0.539-3.062,1.512-5.988,4.57-6.527l27.352-4.825
													C87.179,78.962,87.218,79.118,87.257,79.278L87.257,79.278z M87.257,79.278"></path>
												<path style="fill:#00b388;" d="M113.476,87.344l6.914,8.903c10.687-8.301,23.504-12.684,37.066-12.684
													c18.274,0,35.383,8.141,46.942,22.336l8.742-7.113c-12.512-15.371-30.516-24.754-50.051-26.274v-4.976
													c0-2.789-0.277-5.539-0.808-8.215c4.031,1.039,9,1.93,14.207,1.93c5.675,0,11.632-1.059,16.957-4.133
													c16.691-9.637,19.324-34.57,19.429-35.629l0.395-4.016l-3.68-1.668c-0.965-0.437-23.875-10.625-40.57-0.988
													c-9.516,5.496-14.457,15.957-16.969,24.133c-4.488-4.981-10.152-8.949-16.664-11.391l-3.957,10.555
													c12.195,4.574,20.391,16.398,20.391,29.422v4.976C137.827,73.583,124.667,78.653,113.476,87.344L113.476,87.344z M174.656,24.579
													c8.351-4.821,20.191-2.008,26.296,0.004c-1.312,6.297-4.796,17.953-13.144,22.773c-8.352,4.824-20.188,2.008-26.297-0.004
													C162.824,41.055,166.308,29.399,174.656,24.579L174.656,24.579z M174.656,24.579"></path>
												<path style="fill:#00b388;" d="M122.136,212.813c-21.125,0-38.426,16.688-39.406,37.574H67.656v41.332h108.96v-41.332h-15.074
													C160.562,229.501,143.261,212.813,122.136,212.813L122.136,212.813z M165.347,280.445H78.925V261.66h15.031v-9.395
													c0-15.539,12.641-28.179,28.18-28.179s28.18,12.64,28.18,28.179v9.395h15.031V280.445z M165.347,280.445"></path>
												<rect x="105.23" y="250.387" style="fill:#292F30;" width="11.27" height="11.273"></rect>
												<rect x="127.773" y="250.387" style="fill:#292F30;" width="11.27" height="11.273"></rect>
												<rect x="167.226" y="172.235" style="fill:#292F30;" width="11.27" height="11.273"></rect>
												<rect x="65.777" y="352.586" style="fill:#292F30;" width="11.27" height="11.273"></rect>
											</g>
											</svg>