<svg id="Capa_1" enable-background="new 0 0 512 512" height="512" viewBox="0 0 512 512" width="512" xmlns="http://www.w3.org/2000/svg"><g id="XMLID_1360_"><g id="XMLID_1355_"><g id="XMLID_379_"><path id="XMLID_644_" d="m451.457 231.924-42.584-29.646v-96.291c2.425-1.825 4-4.718 4-7.986v-44.001c0-3.268-1.575-6.161-4-7.986v-27.264c0-10.339-8.411-18.75-18.75-18.75h-46.5c-10.339 0-18.75 8.411-18.75 18.75v27.264c-2.425 1.825-4 4.718-4 7.986v44c0 3.268 1.575 6.161 4 7.986v96.301l-42.431 29.639c-20.94 14.628-33.442 38.611-33.442 64.155v175.355c0 22.368 18.197 40.564 40.563 40.564h77.437 77.437c22.366 0 40.563-18.196 40.563-40.563v-34.351c0-5.522-4.477-10-10-10s-10 4.478-10 10v34.351c0 11.339-9.225 20.563-20.563 20.563h-77.437-77.437c-11.338 0-20.563-9.225-20.563-20.563v-175.356c0-19.016 9.307-36.87 24.896-47.759l46.704-32.624c2.678-1.871 4.273-4.932 4.273-8.198v-18.501h44v18.501c0 3.272 1.601 6.337 4.286 8.207l46.87 32.631c15.636 10.886 24.971 28.759 24.971 47.81v50.938c0 5.522 4.477 10 10 10s10-4.478 10-10v-50.938c0-25.591-12.54-49.601-33.543-64.224zm-110.584-143.924v-24h52v24zm48-68v24h-44v-24zm-44 148.999v-60.999h44v60.999z"/><path id="XMLID_658_" d="m402.93 282.057c0-19.812-16.118-35.93-35.93-35.93s-35.93 16.118-35.93 35.93c0 19.813 16.118 35.931 35.93 35.931s35.93-16.119 35.93-35.931zm-51.86 0c0-8.783 7.146-15.93 15.93-15.93s15.93 7.146 15.93 15.93-7.146 15.931-15.93 15.931-15.93-7.147-15.93-15.931z"/><path id="XMLID_662_" d="m293 352v96c0 5.522 4.477 10 10 10h128c5.523 0 10-4.478 10-10v-96c0-5.522-4.477-10-10-10h-128c-5.523 0-10 4.478-10 10zm20 10h108v76h-108z"/><path id="XMLID_663_" d="m475 382.09c-2.63 0-5.21 1.06-7.07 2.93-1.86 1.86-2.93 4.431-2.93 7.07 0 2.63 1.07 5.21 2.93 7.07 1.86 1.859 4.44 2.93 7.07 2.93s5.21-1.07 7.07-2.93 2.93-4.44 2.93-7.07c0-2.64-1.07-5.22-2.93-7.07-1.86-1.871-4.44-2.93-7.07-2.93z"/><path id="XMLID_666_" d="m211 316h-174c-5.523 0-10 4.478-10 10v152c0 18.748 15.252 34 34 34h126c18.748 0 34-15.252 34-34v-152c0-5.522-4.477-10-10-10zm-164 80.129h154v39.871c0 7.72-6.28 14-14 14h-126c-7.72 0-14-6.28-14-14zm154-60.129v40.129h-154v-40.129zm-14 156h-126c-7.72 0-14-6.28-14-14v-11.029c4.273 1.939 9.01 3.029 14 3.029h126c4.99 0 9.727-1.089 14-3.029v11.029c0 7.72-6.28 14-14 14z"/></g></g></g></svg>