<svg id="Capa_1" enable-background="new 0 0 512 512" height="512" viewBox="0 0 512 512" width="512" xmlns="http://www.w3.org/2000/svg"><g><path d="m460.351 210.995c-36.394-36.394-86.726-55.029-138.093-51.136-26.845 2.038-53.027-7.57-71.813-26.357l-11.421-11.414-21.21 21.21-51.401-51.401c10.909-24.295 6.02-53.239-13.489-72.747-25.454-25.453-66.869-25.453-92.322 0-7.288 7.287-12.658 16.026-15.824 25.657-9.63 3.166-18.369 8.536-25.657 15.824-12.33 12.329-19.121 28.724-19.121 46.161s6.791 33.831 19.121 46.161c12.685 12.685 29.354 19.189 46.146 19.188 9.032 0 18.104-1.884 26.601-5.699l51.401 51.401-21.22 21.22 11.42 11.406c18.75 18.751 28.351 45.028 26.34 72.094-3.808 51.266 14.838 101.498 51.156 137.815 34.373 34.374 79.533 51.562 124.695 51.562 45.129-.001 90.261-17.164 124.626-51.494 33.337-33.303 51.703-77.595 51.715-124.716.01-47.118-18.332-91.417-51.65-124.735zm-364.309-82.804-10.336 7.364c-14.061 10.021-33.143 8.416-45.372-3.814-6.664-6.664-10.334-15.525-10.334-24.949 0-9.425 3.67-18.284 10.333-24.948 5.255-5.255 11.905-8.664 19.23-9.857l10.657-1.736 1.736-10.656c1.194-7.326 4.603-13.977 9.857-19.231 13.757-13.755 36.141-13.755 49.896 0 12.229 12.229 13.834 31.312 3.815 45.373l-7.365 10.336 68.441 68.437-32.119 32.119zm343.04 311.03c-57.057 57.001-149.875 56.975-206.905-.056-30.139-30.139-45.611-71.829-42.451-114.38 2.306-31.055-7.012-61.386-25.816-85.159l75.681-75.682c23.784 18.847 54.036 28.169 84.936 25.828 42.623-3.239 84.409 12.233 114.61 42.435 27.649 27.65 42.871 64.413 42.862 103.516-.009 39.105-15.25 75.86-42.917 103.498z"/></g></svg>