<svg version="1.1" id="Capa_1" xmlns="http://www.w3.org/2000/svg" xmlns:xlink="http://www.w3.org/1999/xlink" x="0px" y="0px" viewBox="23 157 424.049 480.011" style="enable-background:new 23 157 424.049 480.011;" xml:space="preserve">
											<path style="fill:#292F30;" d="M391,525c-28.142,0.049-51.885,20.955-55.496,48.864C328.041,563.309,315.927,557.023,303,557h-24
												V363.8c-0.085-50.6-32.185-95.604-80-112.16V237h48c4.418,0,8-3.582,8-8v-49.184c-0.013-12.595-10.221-22.803-22.816-22.816h-162.4
												C57.201,157.031,47.013,167.233,47,179.816V229c0,4.418,3.582,8,8,8h48v14.64C55.185,268.196,23.085,313.2,23,363.8V629
												c0,4.418,3.582,8,8,8h272c18.116-0.072,33.923-12.31,38.528-29.832c14.452,27.344,48.334,37.794,75.678,23.342
												c27.344-14.452,37.794-48.334,23.342-75.678C430.842,536.469,411.77,524.986,391,525z M239,557c-15.886,0.021-30.254,9.44-36.608,24
												H39V413h224v144H239z M63,179.816c0.004-3.763,3.053-6.812,6.816-6.816h162.4c3.75,0.022,6.78,3.066,6.784,6.816V221H63V179.816z
												 M119,237h64v10.248c-7.51-1.481-15.145-2.234-22.8-2.248h-18.4c-7.655,0.014-15.29,0.767-22.8,2.248V237z M141.8,261h18.4
												c56.747,0.066,102.734,46.053,102.8,102.8V397H39v-33.2C39.066,307.053,85.053,261.066,141.8,261z M39,597h160
												c0.029,8.684,2.914,17.117,8.208,24H39V597z M215,597c0-13.255,10.745-24,24-24h24v48h-24C225.745,621,215,610.255,215,597z
												 M303,621h-24v-48h24c13.255,0,24,10.745,24,24S316.255,621,303,621z M351,581c0.024-19.001,13.389-35.373,32-39.2v78.4
												C364.389,616.373,351.024,600.001,351,581z M399,620.2v-78.4c21.65,4.396,35.636,25.51,31.24,47.16
												C427.044,604.701,414.741,617.004,399,620.2L399,620.2z"></path>
											<path style="fill:#00b388;" d="M143,325v-16c-39.744,0.048-71.952,32.256-72,72h16C87.035,350.087,112.087,325.035,143,325z"></path>
											<rect x="79" y="181" style="fill:#00b388;" width="16" height="32"></rect>
											<rect x="111" y="181" style="fill:#00b388;" width="16" height="32"></rect>
											<rect x="143" y="181" style="fill:#00b388;" width="16" height="32"></rect>
											<rect x="175" y="181" style="fill:#00b388;" width="16" height="32"></rect>
											<rect x="207" y="181" style="fill:#00b388;" width="16" height="32"></rect>
											<polygon style="fill:#00b388;" points="167,445 135,445 135,477 103,477 103,509 135,509 135,541 167,541 167,509 199,509 199,477 
												167,477 "></polygon>
											</svg>